<svg class="icon" viewBox="0 0 1024 1024" xmlns="http://www.w3.org/2000/svg" width="200" height="200"><path d="M651.3 390.041h325.224a47.76 47.76 0 0 1 46.623 48.897v536.165A47.76 47.76 0 0 1 976.524 1024H419.322a47.76 47.76 0 0 1-46.623-48.897V633.959H46.907A47.76 47.76 0 0 1 .284 585.062V48.897A47.76 47.76 0 0 1 46.907 0h557.77A47.76 47.76 0 0 1 651.3 48.897zM46.907 585.061h557.77V48.898H46.907v536.165zm635.665-16.488l-102.343 278.6h45.485l25.018-71.64h113.714l25.018 71.64h43.78l-102.912-278.6zm-22.175 170.572l44.35-126.223 47.19 126.223zm-354.22-625.43h35.251v71.071h135.32v188.198h-35.251V350.81H341.428v130.77h-33.546V350.81h-97.226v22.174h-35.251V184.786h132.477zm-95.52 200.706h96.657v-93.246h-96.658zm130.771 0h100.069v-93.246H341.428z"/></svg>