<svg class="icon" viewBox="0 0 1024 1024" xmlns="http://www.w3.org/2000/svg" width="200" height="200"><path d="M664.25 368.542c10.015 0 19.892.732 29.673 1.796-26.648-122.81-159.359-214.078-310.826-214.078-169.353 0-308.086 114.233-308.086 259.274 0 83.708 46.165 152.46 123.282 205.785l-30.809 91.73 107.689-53.455c38.558 7.536 69.46 15.308 107.924 15.308 9.663 0 19.23-.47 28.753-1.226-6.026-20.366-9.522-41.723-9.522-63.862 0-133.182 115.58-241.272 261.922-241.272zM498.63 285.874c23.2 0 38.557 15.12 38.557 38.062 0 22.846-15.357 38.156-38.557 38.156-23.107 0-46.26-15.31-46.26-38.156 0-22.942 23.154-38.062 46.26-38.062zM283.016 362.09c-23.107 0-46.403-15.31-46.403-38.156 0-22.942 23.296-38.062 46.403-38.062 23.082 0 38.463 15.12 38.463 38.062 0 22.847-15.381 38.156-38.463 38.156zm662.432 244.06c0-121.888-123.258-221.236-261.683-221.236-146.579 0-262.016 99.348-262.016 221.236 0 122.065 115.437 221.201 262.016 221.201 30.666 0 61.617-7.609 92.423-15.262l84.514 45.786-23.179-76.17c61.856-45.93 107.925-106.804 107.925-175.555zm-346.645-38.157c-15.332 0-30.807-15.097-30.807-30.501 0-15.191 15.475-30.478 30.807-30.478 23.296 0 38.559 15.287 38.559 30.478 0 15.404-15.263 30.501-38.559 30.501zm169.448 0c-15.214 0-30.595-15.097-30.595-30.501 0-15.191 15.381-30.478 30.595-30.478 23.107 0 38.558 15.287 38.558 30.478 0 15.404-15.451 30.501-38.558 30.501z"/></svg>